{
	"asset":{
		"version":"2.0",
		"generator":"Created using the official Cinema 4D glTF Exporter 1.000x290161"
	},
	"buffers":[{
		"uri":"data:application/octet-stream;base64,",
		"byteLength":52464
	},
	{
		"uri":"data:application/octet-stream;base64,",
		"byteLength":6380
	},
	{
		"uri":"data:application/octet-stream;base64,",
		"byteLength":67312
	},
	{
		"uri":"data:application/octet-stream;base64,",
		"byteLength":4932
	}],
	"scenes":[{
		"nodes":[0]
	}],
	"nodes":[{
		"name":"biplane0.obj",
		"children":[1,
		2,
		3,
		4]
	},
	{
		"name":"cabin",
		"mesh":0
	},
	{
		"name":"head",
		"mesh":1
	},
	{
		"name":"wing",
		"mesh":2
	},
	{
		"name":"window",
		"mesh":3
	}],
	"meshes":[{
		"primitives":[{
			"attributes":{
				"POSITION":1,
				"NORMAL":2,
				"TEXCOORD_0":3
			},
			"indices":0,
			"material":0
		}]
	},
	{
		"primitives":[{
			"attributes":{
				"POSITION":5,
				"NORMAL":6,
				"TEXCOORD_0":7
			},
			"indices":4,
			"material":1
		}]
	},
	{
		"primitives":[{
			"attributes":{
				"POSITION":9,
				"NORMAL":10,
				"TEXCOORD_0":11
			},
			"indices":8,
			"material":2
		}]
	},
	{
		"primitives":[{
			"attributes":{
				"POSITION":13,
				"NORMAL":14
			},
			"indices":12,
			"material":3
		}]
	}],
	"accessors":[{
		"bufferView":0,
		"type":"SCALAR",
		"componentType":5123,
		"count":5544,
		"byteOffset":0,
		"min":[0],
		"max":[1292]
	},
	{
		"bufferView":1,
		"type":"VEC3",
		"componentType":5126,
		"count":1293,
		"byteOffset":0,
		"min":[-890.068,
		-543.533,
		-2024.061],
		"max":[565.462,
		822.107,
		2126.836]
	},
	{
		"bufferView":1,
		"type":"VEC3",
		"componentType":5126,
		"count":1293,
		"byteOffset":12,
		"min":[-1,
		-0.964,
		-0.994],
		"max":[1,
		1,
		0.996]
	},
	{
		"bufferView":1,
		"type":"VEC2",
		"componentType":5126,
		"count":1293,
		"byteOffset":24,
		"min":[-0.094,
		-1.072],
		"max":[1.257,
		2.143]
	},
	{
		"bufferView":2,
		"type":"SCALAR",
		"componentType":5123,
		"count":726,
		"byteOffset":0,
		"min":[0],
		"max":[153]
	},
	{
		"bufferView":3,
		"type":"VEC3",
		"componentType":5126,
		"count":154,
		"byteOffset":0,
		"min":[-574.044,
		-53.686,
		1856.818],
		"max":[239.921,
		843.055,
		2782.599]
	},
	{
		"bufferView":3,
		"type":"VEC3",
		"componentType":5126,
		"count":154,
		"byteOffset":12,
		"min":[-0.993,
		-0.935,
		-0.148],
		"max":[0.993,
		1,
		0.764]
	},
	{
		"bufferView":3,
		"type":"VEC2",
		"componentType":5126,
		"count":154,
		"byteOffset":24,
		"min":[-0.012,
		-0.012],
		"max":[1,
		1]
	},
	{
		"bufferView":4,
		"type":"SCALAR",
		"componentType":5123,
		"count":7608,
		"byteOffset":0,
		"min":[0],
		"max":[1627]
	},
	{
		"bufferView":5,
		"type":"VEC3",
		"componentType":5126,
		"count":1628,
		"byteOffset":0,
		"min":[-3380.502,
		-596.811,
		-2567.16],
		"max":[3053.743,
		846.175,
		2174.091]
	},
	{
		"bufferView":5,
		"type":"VEC3",
		"componentType":5126,
		"count":1628,
		"byteOffset":12,
		"min":[-0.999,
		-1,
		-1],
		"max":[0.999,
		1,
		1]
	},
	{
		"bufferView":5,
		"type":"VEC2",
		"componentType":5126,
		"count":1628,
		"byteOffset":24,
		"min":[0,
		-0.088],
		"max":[1,
		1]
	},
	{
		"bufferView":6,
		"type":"SCALAR",
		"componentType":5123,
		"count":522,
		"byteOffset":0,
		"min":[0],
		"max":[161]
	},
	{
		"bufferView":7,
		"type":"VEC3",
		"componentType":5126,
		"count":162,
		"byteOffset":0,
		"min":[-608.37,
		259.545,
		561.042],
		"max":[276.92,
		805.228,
		1869.559]
	},
	{
		"bufferView":7,
		"type":"VEC3",
		"componentType":5126,
		"count":162,
		"byteOffset":12,
		"min":[-0.989,
		-0.994,
		-0.981],
		"max":[0.993,
		0.187,
		0.983]
	}],
	"bufferViews":[{
		"buffer":0,
		"byteOffset":0,
		"byteLength":11088,
		"target":34963
	},
	{
		"buffer":0,
		"byteOffset":11088,
		"byteLength":41376,
		"target":34962,
		"byteStride":32
	},
	{
		"buffer":1,
		"byteOffset":0,
		"byteLength":1452,
		"target":34963
	},
	{
		"buffer":1,
		"byteOffset":1452,
		"byteLength":4928,
		"target":34962,
		"byteStride":32
	},
	{
		"buffer":2,
		"byteOffset":0,
		"byteLength":15216,
		"target":34963
	},
	{
		"buffer":2,
		"byteOffset":15216,
		"byteLength":52096,
		"target":34962,
		"byteStride":32
	},
	{
		"buffer":3,
		"byteOffset":0,
		"byteLength":1044,
		"target":34963
	},
	{
		"buffer":3,
		"byteOffset":1044,
		"byteLength":3888,
		"target":34962,
		"byteStride":24
	}],
	"materials":[{
		"pbrMetallicRoughness":{
			"baseColorFactor":[0.937,
			0.871,
			0.804,
			1],
			"metallicFactor":0,
			"roughnessFactor":0.5
		},
		"emissiveFactor":[0,
		0,
		0],
		"alphaMode":"OPAQUE",
		"doubleSided":false,
		"name":"_null_.012"
	},
	{
		"pbrMetallicRoughness":{
			"baseColorFactor":[0.804,
			0.584,
			0.459,
			1],
			"metallicFactor":0,
			"roughnessFactor":0.5
		},
		"emissiveFactor":[0,
		0,
		0],
		"alphaMode":"OPAQUE",
		"doubleSided":false,
		"name":"_null_.009"
	},
	{
		"pbrMetallicRoughness":{
			"baseColorFactor":[0.992,
			0.851,
			0.71,
			1],
			"metallicFactor":0,
			"roughnessFactor":0.5
		},
		"emissiveFactor":[0,
		0,
		0],
		"alphaMode":"OPAQUE",
		"doubleSided":false,
		"name":"_null_.008"
	},
	{
		"pbrMetallicRoughness":{
			"baseColorFactor":[0.471,
			0.859,
			0.886,
			1],
			"metallicFactor":0,
			"roughnessFactor":0.5
		},
		"emissiveFactor":[0,
		0,
		0],
		"alphaMode":"OPAQUE",
		"doubleSided":false,
		"name":"_null_.003"
	}]
}