<?xml version="1.0" standalone="no"?>
<!DOCTYPE svg PUBLIC "-//W3C//DTD SVG 20010904//EN"
 "http://www.w3.org/TR/2001/REC-SVG-20010904/DTD/svg10.dtd">
<svg version="1.0" xmlns="http://www.w3.org/2000/svg"
 width="128" height="128" viewBox="0 0 1280.000000 745.000000"
 preserveAspectRatio="xMidYMid meet">
<metadata>
Created by potrace 1.15, written by Peter Selinger 2001-2017
</metadata>
<g transform="translate(0.000000, 720.000000) scale(0.100000, -0.100000)"
fill="#000000" stroke="none">
<path d="M11015 7415 c-236 -56 -377 -116 -510 -218 l-69 -53 -173 -407 c-302
-716 -549 -1267 -566 -1267 -3 0 -28 11 -57 24 l-51 24 117 123 c65 68 121
126 126 127 4 2 8 10 8 17 0 9 -32 24 -82 39 -46 14 -201 63 -346 109 l-262
84 -168 -42 c-271 -69 -395 -129 -529 -258 -48 -46 -50 -54 -26 -104 13 -29
80 -77 385 -281 l368 -245 -27 -19 c-16 -10 -151 -98 -302 -195 l-274 -177
-351 -138 -351 -138 -719 -125 -719 -125 -366 159 c-1572 683 -3103 1296
-4802 1925 -158 58 -296 106 -306 106 -34 0 -293 -77 -413 -123 -403 -154
-591 -337 -541 -524 26 -97 13 -89 1251 -795 922 -527 1180 -669 1323 -733 97
-43 177 -82 177 -87 0 -10 427 -542 959 -1198 412 -507 367 -454 379 -446 6 4
-175 235 -402 514 -521 642 -896 1108 -896 1115 0 3 81 -31 180 -75 99 -44
180 -85 180 -89 0 -5 232 -306 515 -669 283 -363 520 -668 527 -679 19 -31 -3
-64 -74 -112 -243 -164 -489 -369 -715 -597 -199 -200 -223 -240 -231 -385 -5
-109 7 -176 49 -268 30 -65 30 -67 14 -99 -28 -54 -55 -141 -55 -176 0 -31 2
-33 50 -43 28 -6 94 -16 148 -22 85 -10 104 -16 152 -49 134 -89 279 -154 425
-190 82 -21 106 -22 268 -17 l178 6 -46 -42 c-122 -113 -193 -348 -137 -456
29 -59 63 -76 144 -74 55 1 79 -3 112 -20 62 -33 148 -30 203 7 48 32 107 114
130 181 12 38 33 60 124 135 194 162 225 215 217 364 -3 44 -8 88 -12 96 -4
12 31 29 167 79 222 83 531 215 582 248 22 15 253 108 512 208 l473 182 160
-199 161 -199 -36 -72 c-81 -167 -88 -336 -15 -409 25 -24 36 -28 89 -28 50 0
68 -5 111 -32 67 -42 140 -49 197 -20 52 27 125 109 157 176 19 41 38 61 82
90 32 21 87 69 124 106 143 145 201 364 115 437 -33 29 -62 29 -177 -2 -106
-29 -261 -55 -329 -55 -31 0 -65 -10 -105 -30 -32 -16 -59 -28 -60 -27 -13 13
-214 345 -214 353 0 11 120 58 436 170 l181 64 253 -115 c243 -111 287 -126
1084 -389 861 -284 1842 -604 2216 -723 270 -85 314 -88 484 -30 196 67 350
148 621 325 173 113 385 267 385 280 0 4 -192 96 -427 204 -236 108 -1116 514
-1958 901 -841 387 -1762 813 -2047 947 l-516 242 25 55 c51 111 39 175 -49
259 -76 74 -214 153 -288 165 -25 4 -146 3 -270 -2 -212 -9 -228 -9 -280 10
l-55 20 267 0 c147 1 269 5 272 9 2 4 -48 27 -112 51 -64 24 -128 48 -142 53
-20 8 -22 11 -10 18 8 4 187 76 398 159 341 134 396 153 501 171 65 11 122 20
127 20 4 0 -85 -63 -200 -141 -120 -82 -212 -151 -218 -165 -14 -30 4 -54 39
-54 14 0 280 112 592 249 l566 249 449 77 448 77 112 -32 c61 -18 117 -36 123
-39 9 -4 -21 -39 -85 -97 -360 -336 -1489 -1397 -1497 -1409 -44 -66 101 64
742 666 406 380 770 723 809 761 l70 69 385 -120 c664 -208 980 -292 1094
-294 145 -2 457 156 605 306 68 68 93 107 84 131 -24 63 -432 288 -991 547
l-214 99 -164 -48 -164 -49 35 40 c40 48 45 90 13 123 l-21 23 45 268 c125
729 287 1702 287 1716 0 22 0 22 -165 -18z m-1337 -1974 c4 -13 -111 -98 -325
-242 -117 -78 -159 -102 -137 -78 16 19 103 111 193 206 l162 171 52 -24 c29
-13 53 -28 55 -33z m-2732 -1523 c261 -123 474 -226 474 -231 0 -14 -200 -83
-342 -118 -54 -12 -98 -26 -98 -30 0 -3 23 -16 52 -28 l52 -22 -29 -17 c-17
-10 -231 -129 -477 -265 l-446 -247 -96 41 c-53 23 -96 45 -96 48 0 4 33 24
73 44 145 72 800 367 838 377 39 11 54 30 22 30 -32 0 -286 -91 -423 -151
-142 -63 -252 -120 -437 -226 -99 -56 -115 -63 -135 -52 -19 10 -24 8 -42 -14
l-21 -25 -188 87 c-104 47 -188 91 -186 96 2 6 221 218 488 473 444 422 488
462 514 457 16 -3 242 -105 503 -227z m-3093 -299 c358 -160 656 -294 661
-299 5 -5 -4 -29 -22 -57 -80 -127 -175 -346 -236 -548 -15 -49 -29 -96 -32
-104 -4 -13 -7 -13 -18 0 -26 27 -1015 1299 -1011 1299 3 0 299 -131 658 -291z
m2120 -962 l32 -14 -6 -199 c-15 -466 -20 -934 -9 -934 6 0 10 61 11 178 1
291 15 932 21 937 3 3 17 1 30 -6 25 -11 25 -12 31 -182 7 -196 11 -205 73
-188 22 6 108 44 192 86 85 41 158 75 162 75 10 0 722 -319 730 -327 8 -8 -79
-83 -161 -139 -57 -40 -93 -56 -158 -73 -124 -31 -219 -96 -222 -152 -1 -10
-2 -23 -3 -28 0 -5 -22 -25 -47 -45 -26 -19 -55 -46 -65 -59 -14 -18 -78 -46
-244 -106 -124 -44 -238 -81 -255 -81 -102 -1 -236 -137 -222 -226 4 -26 2
-34 -12 -39 -18 -5 -539 -65 -571 -65 -16 0 -17 5 -8 42 19 85 37 246 44 383
5 114 4 152 -10 205 -53 205 -220 400 -472 552 -51 30 -129 70 -175 88 -46 18
-87 36 -92 40 -4 3 6 19 22 34 l29 28 99 -42 c117 -50 245 -120 442 -242 80
-50 161 -95 181 -100 19 -4 89 -8 155 -8 141 -1 235 19 342 74 l70 35 6 98 c4
54 7 141 7 194 0 96 9 219 17 219 2 0 18 -6 36 -13z m-1063 -1408 c0 -9 -256
-124 -377 -169 -93 -35 -288 -90 -319 -90 -7 0 -24 25 -38 56 -74 162 -264
347 -491 479 -16 9 26 52 305 318 l323 307 299 -447 c164 -247 298 -451 298
-454z m2522 749 c76 -34 135 -64 132 -67 -8 -8 -508 -190 -512 -187 -4 5 147
246 182 289 20 25 35 36 45 32 9 -4 78 -34 153 -67z m229 -104 c33 -15 58 -28
56 -30 -2 -2 -360 -130 -795 -283 -566 -200 -813 -292 -865 -322 -39 -23 -88
-50 -107 -61 -22 -13 4 18 75 86 61 58 116 106 123 106 14 0 1409 507 1432
521 20 11 15 12 81 -17z m-660 -103 l27 -59 -101 -36 c-92 -34 -101 -35 -117
-21 -10 9 -32 17 -49 17 -17 1 -29 3 -26 6 15 15 222 151 230 151 6 1 22 -26
36 -58z m222 -365 l110 -179 -24 -19 c-13 -10 -40 -31 -60 -47 l-36 -30 -153
190 c-84 104 -151 192 -148 194 11 11 174 73 187 72 7 -1 63 -83 124 -181z
m-3483 38 c150 -94 285 -218 364 -338 42 -63 73 -133 63 -142 -3 -4 -41 -3
-84 1 -73 7 -79 9 -108 43 -49 59 -115 120 -160 149 -24 15 -51 41 -61 57 -34
59 -125 145 -171 162 l-44 17 48 49 c26 26 54 48 63 48 8 0 49 -21 90 -46z
m-144 -100 c46 -22 112 -97 154 -175 30 -56 35 -73 35 -135 0 -58 -4 -76 -20
-94 -53 -58 -172 -83 -340 -69 -94 7 -204 25 -212 33 -9 9 22 107 57 181 42
88 94 152 182 226 64 53 89 59 144 33z m1393 -226 c36 -56 56 -94 48 -96 -73
-15 -823 -90 -831 -82 -5 5 2 11 20 15 200 44 384 109 579 204 55 27 105 50
111 50 6 1 39 -41 73 -91z m-1124 -30 c64 -57 115 -130 115 -163 0 -20 -8 -22
-102 -32 -57 -6 -108 -8 -114 -6 -7 3 -3 14 12 30 39 42 49 98 32 166 -8 31
-12 57 -8 57 3 0 32 -24 65 -52z m315 -145 c11 -10 -27 -21 -93 -28 -70 -6
-86 -1 -87 31 0 10 168 8 180 -3z m959 -249 c1 -27 -10 -42 -70 -98 -144 -136
-344 -283 -476 -350 -126 -63 -228 -89 -316 -79 -46 6 -47 6 -47 42 0 81 51
212 113 290 63 80 126 112 297 155 85 22 227 62 315 91 l160 51 12 -35 c6 -20
12 -50 12 -67z m-9 -104 c-20 -70 -58 -116 -188 -226 -154 -130 -251 -199
-348 -248 -126 -63 -266 -85 -310 -48 -21 17 -44 53 -44 69 0 4 39 8 88 9 74
0 100 6 177 35 155 59 350 190 545 363 46 42 85 76 86 76 2 0 -1 -13 -6 -30z"/>
<path d="M5955 3522 c-390 -188 -403 -197 -372 -245 19 -29 77 -47 148 -47 65
0 139 31 354 147 206 112 210 114 210 143 0 38 -53 60 -145 60 -71 -1 -82 -4
-195 -58z"/>
</g>
</svg>
